<?xml version="1.0" encoding="UTF-8" standalone="no"?><svg xmlns="http://www.w3.org/2000/svg" xmlns:xlink="http://www.w3.org/1999/xlink" contentScriptType="application/ecmascript" contentStyleType="text/css" height="433px" preserveAspectRatio="none" style="width:846px;height:433px;" version="1.1" viewBox="0 0 846 433" width="846px" zoomAndPan="magnify"><defs><filter height="300%" id="f1owxrq2u7p6xe" width="300%" x="-1" y="-1"><feGaussianBlur result="blurOut" stdDeviation="2.0"/><feColorMatrix in="blurOut" result="blurOut2" type="matrix" values="0 0 0 0 0 0 0 0 0 0 0 0 0 0 0 0 0 0 .4 0"/><feOffset dx="4.0" dy="4.0" in="blurOut2" result="blurOut3"/><feBlend in="SourceGraphic" in2="blurOut3" mode="normal"/></filter></defs><g><!--class PropertyResolver--><rect fill="#FEFECE" filter="url(#f1owxrq2u7p6xe)" height="78.0459" id="PropertyResolver" style="stroke: #A80036; stroke-width: 1.5;" width="127" x="432.5" y="8"/><ellipse cx="447.5" cy="24" fill="#B4A7E5" rx="11" ry="11" style="stroke: #A80036; stroke-width: 1.0;"/><path d="M444.0938,18.2813 L444.0938,17.875 L450.4063,17.875 L450.4063,18.2813 L447.875,18.2813 Q447.875,18.2813 448.0234,18.4141 Q448.1719,18.5469 448.1719,18.8125 L448.1719,28.2969 Q448.1719,28.5625 448.3906,28.6953 Q448.6094,28.8281 448.6094,28.8281 L450.4063,28.8281 L450.4063,29.2344 L444.0938,29.2344 L444.0938,28.8281 L445.625,28.8281 Q445.9531,28.8281 446.0859,28.6953 Q446.2188,28.5625 446.2188,28.2969 L446.2188,18.8125 Q446.2188,18.5469 446.0859,18.4141 Q445.9531,18.2813 445.625,18.2813 L444.0938,18.2813 Z "/><text fill="#000000" font-family="sans-serif" font-size="12" font-style="italic" lengthAdjust="spacingAndGlyphs" textLength="95" x="461.5" y="29.5576">PropertyResolver</text><line style="stroke: #A80036; stroke-width: 1.5;" x1="433.5" x2="558.5" y1="40" y2="40"/><line style="stroke: #A80036; stroke-width: 1.5;" x1="433.5" x2="558.5" y1="48" y2="48"/><ellipse cx="443.5" cy="59" fill="#84BE84" rx="3" ry="3" style="stroke: #038048; stroke-width: 1.0;"/><text fill="#000000" font-family="sans-serif" font-size="11" lengthAdjust="spacingAndGlyphs" textLength="71" x="452.5" y="64.606">访问property()</text><ellipse cx="443.5" cy="74.0229" fill="#84BE84" rx="3" ry="3" style="stroke: #038048; stroke-width: 1.0;"/><text fill="#000000" font-family="sans-serif" font-size="11" lengthAdjust="spacingAndGlyphs" textLength="87" x="452.5" y="79.6289">解析placeHolder()</text><!--class Environment--><rect fill="#FEFECE" filter="url(#f1owxrq2u7p6xe)" height="78.0459" id="Environment" style="stroke: #A80036; stroke-width: 1.5;" width="174" x="199" y="153.5"/><ellipse cx="246.75" cy="169.5" fill="#B4A7E5" rx="11" ry="11" style="stroke: #A80036; stroke-width: 1.0;"/><path d="M243.3438,163.7813 L243.3438,163.375 L249.6563,163.375 L249.6563,163.7813 L247.125,163.7813 Q247.125,163.7813 247.2734,163.9141 Q247.4219,164.0469 247.4219,164.3125 L247.4219,173.7969 Q247.4219,174.0625 247.6406,174.1953 Q247.8594,174.3281 247.8594,174.3281 L249.6563,174.3281 L249.6563,174.7344 L243.3438,174.7344 L243.3438,174.3281 L244.875,174.3281 Q245.2031,174.3281 245.3359,174.1953 Q245.4688,174.0625 245.4688,173.7969 L245.4688,164.3125 Q245.4688,164.0469 245.3359,163.9141 Q245.2031,163.7813 244.875,163.7813 L243.3438,163.7813 Z "/><text fill="#000000" font-family="sans-serif" font-size="12" font-style="italic" lengthAdjust="spacingAndGlyphs" textLength="70" x="267.25" y="175.0576">Environment</text><line style="stroke: #A80036; stroke-width: 1.5;" x1="200" x2="372" y1="185.5" y2="185.5"/><line style="stroke: #A80036; stroke-width: 1.5;" x1="200" x2="372" y1="193.5" y2="193.5"/><ellipse cx="210" cy="204.5" fill="#84BE84" rx="3" ry="3" style="stroke: #038048; stroke-width: 1.0;"/><text fill="#000000" font-family="sans-serif" font-size="11" lengthAdjust="spacingAndGlyphs" textLength="60" x="219" y="210.106">访问profile()</text><ellipse cx="210" cy="219.5229" fill="#84BE84" rx="3" ry="3" style="stroke: #038048; stroke-width: 1.0;"/><text fill="#000000" font-family="sans-serif" font-size="11" lengthAdjust="spacingAndGlyphs" textLength="148" x="219" y="225.1289">运行时判断profile是否起作用()</text><!--class ConfigurablePropertyResolver--><rect fill="#FEFECE" filter="url(#f1owxrq2u7p6xe)" height="93.0688" id="ConfigurablePropertyResolver" style="stroke: #A80036; stroke-width: 1.5;" width="257" x="578.5" y="146"/><ellipse cx="619.6" cy="162" fill="#B4A7E5" rx="11" ry="11" style="stroke: #A80036; stroke-width: 1.0;"/><path d="M616.1938,156.2813 L616.1938,155.875 L622.5063,155.875 L622.5063,156.2813 L619.975,156.2813 Q619.975,156.2813 620.1234,156.4141 Q620.2719,156.5469 620.2719,156.8125 L620.2719,166.2969 Q620.2719,166.5625 620.4906,166.6953 Q620.7094,166.8281 620.7094,166.8281 L622.5063,166.8281 L622.5063,167.2344 L616.1938,167.2344 L616.1938,166.8281 L617.725,166.8281 Q618.0531,166.8281 618.1859,166.6953 Q618.3188,166.5625 618.3188,166.2969 L618.3188,156.8125 Q618.3188,156.5469 618.1859,156.4141 Q618.0531,156.2813 617.725,156.2813 L616.1938,156.2813 Z "/><text fill="#000000" font-family="sans-serif" font-size="12" font-style="italic" lengthAdjust="spacingAndGlyphs" textLength="167" x="639.4" y="167.5576">ConfigurablePropertyResolver</text><line style="stroke: #A80036; stroke-width: 1.5;" x1="579.5" x2="834.5" y1="178" y2="178"/><text fill="#000000" font-family="sans-serif" font-size="11" lengthAdjust="spacingAndGlyphs" textLength="107" x="584.5" y="194.606">配置: placeHolder相关</text><text fill="#000000" font-family="sans-serif" font-size="11" lengthAdjust="spacingAndGlyphs" textLength="245" x="584.5" y="209.6289">配置: 解析出错后的处理(原封不动返回还是抛异常)</text><line style="stroke: #A80036; stroke-width: 1.0;" x1="579.5" x2="834.5" y1="216.0459" y2="216.0459"/><ellipse cx="589.5" cy="227.0459" fill="#84BE84" rx="3" ry="3" style="stroke: #038048; stroke-width: 1.0;"/><text fill="#000000" font-family="sans-serif" font-size="11" lengthAdjust="spacingAndGlyphs" textLength="137" x="598.5" y="232.6519">设置和验证必需的property()</text><!--class ConfigurableEnvironment--><rect fill="#FEFECE" filter="url(#f1owxrq2u7p6xe)" height="123.1147" id="ConfigurableEnvironment" style="stroke: #A80036; stroke-width: 1.5;" width="194" x="207" y="299"/><ellipse cx="231" cy="315" fill="#B4A7E5" rx="11" ry="11" style="stroke: #A80036; stroke-width: 1.0;"/><path d="M227.5938,309.2813 L227.5938,308.875 L233.9063,308.875 L233.9063,309.2813 L231.375,309.2813 Q231.375,309.2813 231.5234,309.4141 Q231.6719,309.5469 231.6719,309.8125 L231.6719,319.2969 Q231.6719,319.5625 231.8906,319.6953 Q232.1094,319.8281 232.1094,319.8281 L233.9063,319.8281 L233.9063,320.2344 L227.5938,320.2344 L227.5938,319.8281 L229.125,319.8281 Q229.4531,319.8281 229.5859,319.6953 Q229.7188,319.5625 229.7188,319.2969 L229.7188,309.8125 Q229.7188,309.5469 229.5859,309.4141 Q229.4531,309.2813 229.125,309.2813 L227.5938,309.2813 Z "/><text fill="#000000" font-family="sans-serif" font-size="12" font-style="italic" lengthAdjust="spacingAndGlyphs" textLength="142" x="247" y="320.5576">ConfigurableEnvironment</text><line style="stroke: #A80036; stroke-width: 1.5;" x1="208" x2="400" y1="331" y2="331"/><text fill="#000000" font-family="sans-serif" font-size="11" lengthAdjust="spacingAndGlyphs" textLength="182" x="213" y="347.606">配置: activate profile 和 default profile</text><line style="stroke: #A80036; stroke-width: 1.0;" x1="208" x2="400" y1="354.0229" y2="354.0229"/><ellipse cx="218" cy="365.0229" fill="#84BE84" rx="3" ry="3" style="stroke: #038048; stroke-width: 1.0;"/><text fill="#000000" font-family="sans-serif" font-size="11" lengthAdjust="spacingAndGlyphs" textLength="63" x="227" y="370.6289">访问配置源()</text><ellipse cx="218" cy="380.0459" fill="#84BE84" rx="3" ry="3" style="stroke: #038048; stroke-width: 1.0;"/><text fill="#000000" font-family="sans-serif" font-size="11" lengthAdjust="spacingAndGlyphs" textLength="114" x="227" y="385.6519">访问JVM参数property()</text><ellipse cx="218" cy="395.0688" fill="#84BE84" rx="3" ry="3" style="stroke: #038048; stroke-width: 1.0;"/><text fill="#000000" font-family="sans-serif" font-size="11" lengthAdjust="spacingAndGlyphs" textLength="115" x="227" y="400.6748">访问环境变量property()</text><ellipse cx="218" cy="410.0918" fill="#84BE84" rx="3" ry="3" style="stroke: #038048; stroke-width: 1.0;"/><text fill="#000000" font-family="sans-serif" font-size="11" lengthAdjust="spacingAndGlyphs" textLength="111" x="227" y="415.6978">与父Environment合并()</text><!--class ConversionService--><rect fill="#FEFECE" filter="url(#f1owxrq2u7p6xe)" height="62.5344" id="ConversionService" style="stroke: #A80036; stroke-width: 1.5;" width="135" x="408.5" y="161"/><ellipse cx="423.5" cy="177" fill="#ADD1B2" rx="11" ry="11" style="stroke: #A80036; stroke-width: 1.0;"/><path d="M422.0781,182.3594 Q420.2188,182.3594 419.125,180.9688 Q418.0313,179.5781 418.0313,176.5938 Q418.0313,174.0625 419.1953,172.4063 Q420.3594,170.75 422.3438,170.75 Q423.8125,170.75 424.2813,170.875 Q424.75,171.0781 424.75,171.0781 Q424.75,171.0781 424.75,171.0078 Q424.75,170.9375 425.3594,170.0156 L426.4063,173.6719 L425.0781,174.0781 Q424.6094,172.5313 423.9453,171.8672 Q423.2813,171.2031 422.2188,171.2031 Q421.8281,171.2031 421.0625,172.7344 Q420.2969,174.2656 420.2969,176.5156 Q420.2969,178.9844 420.9609,180.375 Q421.625,181.7656 422.1563,181.7656 Q423.2188,181.7656 423.9766,181 Q424.7344,180.2344 425.0781,178.5781 L426.4063,179.1719 Q426.0781,180.5781 425.1797,181.4688 Q424.2813,182.3594 422.0781,182.3594 Z "/><text fill="#000000" font-family="sans-serif" font-size="12" lengthAdjust="spacingAndGlyphs" textLength="103" x="437.5" y="182.5576">ConversionService</text><line style="stroke: #A80036; stroke-width: 1.5;" x1="409.5" x2="542.5" y1="193" y2="193"/><line style="stroke: #A80036; stroke-width: 1.0; stroke-dasharray: 1.0,2.0;" x1="409.5" x2="421" y1="208.5115" y2="208.5115"/><text fill="#000000" font-family="sans-serif" font-size="11" lengthAdjust="spacingAndGlyphs" textLength="110" x="421" y="213.106">字符串格式转换等方法</text><line style="stroke: #A80036; stroke-width: 1.0; stroke-dasharray: 1.0,2.0;" x1="531" x2="542.5" y1="208.5115" y2="208.5115"/><!--class MutablePropertySources--><rect fill="#FEFECE" filter="url(#f1owxrq2u7p6xe)" height="48" id="MutablePropertySources" style="stroke: #A80036; stroke-width: 1.5;" width="166" x="6" y="336.5"/><ellipse cx="21" cy="352.5" fill="#ADD1B2" rx="11" ry="11" style="stroke: #A80036; stroke-width: 1.0;"/><path d="M19.5781,357.8594 Q17.7188,357.8594 16.625,356.4688 Q15.5313,355.0781 15.5313,352.0938 Q15.5313,349.5625 16.6953,347.9063 Q17.8594,346.25 19.8438,346.25 Q21.3125,346.25 21.7813,346.375 Q22.25,346.5781 22.25,346.5781 Q22.25,346.5781 22.25,346.5078 Q22.25,346.4375 22.8594,345.5156 L23.9063,349.1719 L22.5781,349.5781 Q22.1094,348.0313 21.4453,347.3672 Q20.7813,346.7031 19.7188,346.7031 Q19.3281,346.7031 18.5625,348.2344 Q17.7969,349.7656 17.7969,352.0156 Q17.7969,354.4844 18.4609,355.875 Q19.125,357.2656 19.6563,357.2656 Q20.7188,357.2656 21.4766,356.5 Q22.2344,355.7344 22.5781,354.0781 L23.9063,354.6719 Q23.5781,356.0781 22.6797,356.9688 Q21.7813,357.8594 19.5781,357.8594 Z "/><text fill="#000000" font-family="sans-serif" font-size="12" lengthAdjust="spacingAndGlyphs" textLength="134" x="35" y="358.0576">MutablePropertySources</text><line style="stroke: #A80036; stroke-width: 1.5;" x1="7" x2="171" y1="368.5" y2="368.5"/><line style="stroke: #A80036; stroke-width: 1.5;" x1="7" x2="171" y1="376.5" y2="376.5"/><!--class AbstractEnvironment--><rect fill="#FEFECE" filter="url(#f1owxrq2u7p6xe)" height="48" id="AbstractEnvironment" style="stroke: #A80036; stroke-width: 1.5;" width="147" x="436.5" y="336.5"/><ellipse cx="451.5" cy="352.5" fill="#A9DCDF" rx="11" ry="11" style="stroke: #A80036; stroke-width: 1.0;"/><path d="M451.875,352.4844 L449.8906,352.4844 L449.2969,355 Q449.2344,355.3438 449.2344,355.5313 Q449.2344,355.7969 449.3281,356.0625 Q449.4219,356.3281 449.4219,356.3281 L450.0938,356.3281 L450.0938,356.7344 L446.6406,356.7344 L446.6406,356.3281 L446.8281,356.3281 Q447.0938,356.3281 447.2969,356.1641 Q447.5,356 447.5625,355.6094 L450.1563,345.4375 L452.0313,344.8281 L454.6719,355.6094 Q454.8125,356 455.0078,356.1641 Q455.2031,356.3281 455.2031,356.3281 L455.6719,356.3281 L455.6719,356.7344 L451.8125,356.7344 L451.8125,356.3281 L452.0781,356.3281 Q452.4844,356.3281 452.5469,356.1641 Q452.6094,356 452.6094,355.875 Q452.6094,355.6094 452.5469,355.4063 L451.875,352.4844 Z M450.4844,346.5781 L450.4844,346.5781 L450.0313,352.0781 L451.8125,352.0781 L450.4844,346.5781 Z "/><text fill="#000000" font-family="sans-serif" font-size="12" font-style="italic" lengthAdjust="spacingAndGlyphs" textLength="115" x="465.5" y="358.0576">AbstractEnvironment</text><line style="stroke: #A80036; stroke-width: 1.5;" x1="437.5" x2="582.5" y1="368.5" y2="368.5"/><line style="stroke: #A80036; stroke-width: 1.5;" x1="437.5" x2="582.5" y1="376.5" y2="376.5"/><!--class StandardEnvironment--><rect fill="#FEFECE" filter="url(#f1owxrq2u7p6xe)" height="48" id="StandardEnvironment" style="stroke: #A80036; stroke-width: 1.5;" width="151" x="618.5" y="336.5"/><ellipse cx="633.5" cy="352.5" fill="#ADD1B2" rx="11" ry="11" style="stroke: #A80036; stroke-width: 1.0;"/><path d="M632.0781,357.8594 Q630.2188,357.8594 629.125,356.4688 Q628.0313,355.0781 628.0313,352.0938 Q628.0313,349.5625 629.1953,347.9063 Q630.3594,346.25 632.3438,346.25 Q633.8125,346.25 634.2813,346.375 Q634.75,346.5781 634.75,346.5781 Q634.75,346.5781 634.75,346.5078 Q634.75,346.4375 635.3594,345.5156 L636.4063,349.1719 L635.0781,349.5781 Q634.6094,348.0313 633.9453,347.3672 Q633.2813,346.7031 632.2188,346.7031 Q631.8281,346.7031 631.0625,348.2344 Q630.2969,349.7656 630.2969,352.0156 Q630.2969,354.4844 630.9609,355.875 Q631.625,357.2656 632.1563,357.2656 Q633.2188,357.2656 633.9766,356.5 Q634.7344,355.7344 635.0781,354.0781 L636.4063,354.6719 Q636.0781,356.0781 635.1797,356.9688 Q634.2813,357.8594 632.0781,357.8594 Z "/><text fill="#000000" font-family="sans-serif" font-size="12" lengthAdjust="spacingAndGlyphs" textLength="119" x="647.5" y="358.0576">StandardEnvironment</text><line style="stroke: #A80036; stroke-width: 1.5;" x1="619.5" x2="768.5" y1="368.5" y2="368.5"/><line style="stroke: #A80036; stroke-width: 1.5;" x1="619.5" x2="768.5" y1="376.5" y2="376.5"/><!--class PropertySource--><rect fill="#FEFECE" filter="url(#f1owxrq2u7p6xe)" height="48" id="PropertySource" style="stroke: #A80036; stroke-width: 1.5;" width="116" x="31" y="168.5"/><ellipse cx="46" cy="184.5" fill="#ADD1B2" rx="11" ry="11" style="stroke: #A80036; stroke-width: 1.0;"/><path d="M44.5781,189.8594 Q42.7188,189.8594 41.625,188.4688 Q40.5313,187.0781 40.5313,184.0938 Q40.5313,181.5625 41.6953,179.9063 Q42.8594,178.25 44.8438,178.25 Q46.3125,178.25 46.7813,178.375 Q47.25,178.5781 47.25,178.5781 Q47.25,178.5781 47.25,178.5078 Q47.25,178.4375 47.8594,177.5156 L48.9063,181.1719 L47.5781,181.5781 Q47.1094,180.0313 46.4453,179.3672 Q45.7813,178.7031 44.7188,178.7031 Q44.3281,178.7031 43.5625,180.2344 Q42.7969,181.7656 42.7969,184.0156 Q42.7969,186.4844 43.4609,187.875 Q44.125,189.2656 44.6563,189.2656 Q45.7188,189.2656 46.4766,188.5 Q47.2344,187.7344 47.5781,186.0781 L48.9063,186.6719 Q48.5781,188.0781 47.6797,188.9688 Q46.7813,189.8594 44.5781,189.8594 Z "/><text fill="#000000" font-family="sans-serif" font-size="12" lengthAdjust="spacingAndGlyphs" textLength="84" x="60" y="190.0576">PropertySource</text><line style="stroke: #A80036; stroke-width: 1.5;" x1="32" x2="146" y1="200.5" y2="200.5"/><line style="stroke: #A80036; stroke-width: 1.5;" x1="32" x2="146" y1="208.5" y2="208.5"/><!--reverse link PropertyResolver to Environment--><path d="M423.605,97.47 C396.754,115.818 366.745,136.324 341.621,153.493 " fill="none" id="PropertyResolver&lt;-Environment" style="stroke: #A80036; stroke-width: 1.0;"/><polygon fill="none" points="419.813,91.583,440.275,86.079,427.712,103.142,419.813,91.583" style="stroke: #A80036; stroke-width: 1.0;"/><!--reverse link PropertyResolver to ConfigurablePropertyResolver--><path d="M568.703,97.445 C591.78,113.139 617.18,130.414 639.848,145.83 " fill="none" id="PropertyResolver&lt;-ConfigurablePropertyResolver" style="stroke: #A80036; stroke-width: 1.0;"/><polygon fill="none" points="564.591,103.114,551.99,86.079,572.465,91.538,564.591,103.114" style="stroke: #A80036; stroke-width: 1.0;"/><!--reverse link Environment to ConfigurableEnvironment--><path d="M292.286,251.472 C293.947,266.791 295.744,283.364 297.42,298.821 " fill="none" id="Environment&lt;-ConfigurableEnvironment" style="stroke: #A80036; stroke-width: 1.0;"/><polygon fill="none" points="285.326,252.222,290.13,231.584,299.245,250.713,285.326,252.222" style="stroke: #A80036; stroke-width: 1.0;"/><!--reverse link ConfigurablePropertyResolver to ConfigurableEnvironment--><path d="M559.424,243.288 C513.89,259.786 463.923,279.062 419,299 C413.123,301.608 407.13,304.386 401.118,307.262 " fill="none" id="ConfigurablePropertyResolver&lt;-ConfigurableEnvironment" style="stroke: #A80036; stroke-width: 1.0;"/><polygon fill="none" points="557.115,236.68,578.304,236.513,561.843,249.857,557.115,236.68" style="stroke: #A80036; stroke-width: 1.0;"/><!--link ConversionService to ConfigurablePropertyResolver--><path d="M543.676,192.5 C550.92,192.5 558.163,192.5 565.407,192.5 " fill="none" id="ConversionService-&gt;ConfigurablePropertyResolver" style="stroke: #A80036; stroke-width: 1.0;"/><polygon fill="#FFFFFF" points="578.446,192.5,572.446,188.5,566.446,192.5,572.446,196.5,578.446,192.5" style="stroke: #A80036; stroke-width: 1.0;"/><!--link MutablePropertySources to ConfigurableEnvironment--><path d="M172.145,360.5 C179.388,360.5 186.631,360.5 193.874,360.5 " fill="none" id="MutablePropertySources-&gt;ConfigurableEnvironment" style="stroke: #A80036; stroke-width: 1.0;"/><polygon fill="#A80036" points="206.911,360.5,200.911,356.5,194.911,360.5,200.911,364.5,206.911,360.5" style="stroke: #A80036; stroke-width: 1.0;"/><text fill="#000000" font-family="sans-serif" font-size="13" lengthAdjust="spacingAndGlyphs" textLength="7" x="180.1326" y="357.6491">1</text><text fill="#000000" font-family="sans-serif" font-size="13" lengthAdjust="spacingAndGlyphs" textLength="7" x="191.8953" y="357.7461">1</text><!--reverse link ConfigurableEnvironment to AbstractEnvironment--><path d="M421.484,360.5 C426.377,360.5 431.27,360.5 436.164,360.5 " fill="none" id="ConfigurableEnvironment&lt;-AbstractEnvironment" style="stroke: #A80036; stroke-width: 1.0;"/><polygon fill="none" points="421.367,367.4999,401.367,360.5,421.367,353.4999,421.367,367.4999" style="stroke: #A80036; stroke-width: 1.0;"/><!--reverse link AbstractEnvironment to StandardEnvironment--><path d="M603.874,360.5 C608.632,360.5 613.391,360.5 618.149,360.5 " fill="none" id="AbstractEnvironment&lt;-StandardEnvironment" style="stroke: #A80036; stroke-width: 1.0;"/><polygon fill="none" points="603.672,367.4999,583.672,360.5,603.672,353.4999,603.672,367.4999" style="stroke: #A80036; stroke-width: 1.0;"/><!--link PropertySource to MutablePropertySources--><path d="M89,216.582 C89,244.131 89,290.537 89,322.9722 " fill="none" id="PropertySource-&gt;MutablePropertySources" style="stroke: #A80036; stroke-width: 1.0;"/><polygon fill="#FFFFFF" points="89,336.3475,93,330.3475,89,324.3475,85,330.3475,89,336.3475" style="stroke: #A80036; stroke-width: 1.0;"/><text fill="#000000" font-family="sans-serif" font-size="13" lengthAdjust="spacingAndGlyphs" textLength="24" x="62.075" y="239.5138">0..N</text><!--
@startuml environment
interface PropertyResolver {
+ 访问property()
+ 解析placeHolder()
}
interface Environment extends PropertyResolver{
+ 访问profile()
+ 运行时判断profile是否起作用()
}
interface ConfigurablePropertyResolver extends PropertyResolver {
配置: placeHolder相关
配置: 解析出错后的处理(原封不动返回还是抛异常)
- -
+ 设置和验证必需的property()
} 
interface ConfigurableEnvironment extends Environment, ConfigurablePropertyResolver {
配置: activate profile 和 default profile
- -
+ 访问配置源()
+ 访问JVM参数property()
+ 访问环境变量property()
+ 与父Environment合并()
}

class ConversionService{
..字符串格式转换等方法..
}
class MutablePropertySources
abstract class AbstractEnvironment
class StandardEnvironment
class PropertySource

ConfigurablePropertyResolver o-left- ConversionService
ConfigurableEnvironment "1" *-left- "1" MutablePropertySources
ConfigurableEnvironment <|-right- AbstractEnvironment
AbstractEnvironment <|-right- StandardEnvironment
MutablePropertySources o-up-"0..N" PropertySource
@enduml

PlantUML version 1.2019.09(Tue Aug 27 00:19:51 CST 2019)
(GPL source distribution)
Java Runtime: Java(TM) SE Runtime Environment
JVM: Java HotSpot(TM) 64-Bit Server VM
Java Version: 1.8.0_241-b07
Operating System: Windows 10
OS Version: 10.0
Default Encoding: GBK
Language: zh
Country: CN
--></g></svg>